<?xml version="1.0" encoding="UTF-8" standalone="no"?>
<!-- Created with Inkscape (http://www.inkscape.org/) -->

<svg
   xmlns:dc="http://purl.org/dc/elements/1.1/"
   xmlns:cc="http://creativecommons.org/ns#"
   xmlns:rdf="http://www.w3.org/1999/02/22-rdf-syntax-ns#"
   xmlns:svg="http://www.w3.org/2000/svg"
   xmlns="http://www.w3.org/2000/svg"
   xmlns:xlink="http://www.w3.org/1999/xlink"
   version="1.1"
   width="118.859"
   height="34.821964"
   viewBox="0 0 118.859 34.821964"
   id="svg3857"
   xml:space="preserve"><metadata
     id="metadata4852"><rdf:RDF><cc:Work
         rdf:about=""><dc:format>image/svg+xml</dc:format><dc:type
           rdf:resource="http://purl.org/dc/dcmitype/StillImage" /><dc:title></dc:title></cc:Work></rdf:RDF></metadata><defs
     id="defs4850"><radialGradient
       cx="-145.4702"
       cy="87.823196"
       r="68.686401"
       id="SVGID_1_"
       gradientUnits="userSpaceOnUse"
       gradientTransform="matrix(1,0,0,-1,192.3999,143.0996)">
		<stop
   id="stop3922"
   style="stop-color:#ffffff;stop-opacity:1"
   offset="0" />
		<stop
   id="stop3924"
   style="stop-color:#eaeaeb;stop-opacity:1"
   offset="0.4835" />
		<stop
   id="stop3926"
   style="stop-color:#a9abae;stop-opacity:1"
   offset="0.94510001" />
		<stop
   id="stop3928"
   style="stop-color:#999b9e;stop-opacity:1"
   offset="1" />
	</radialGradient><linearGradient
       x1="66.232399"
       y1="24.481001"
       x2="112.7331"
       y2="97.232101"
       id="SVGID_2_"
       gradientUnits="userSpaceOnUse">
		<stop
   id="stop3935"
   style="stop-color:#8a8a8a;stop-opacity:1"
   offset="0" />
		<stop
   id="stop3937"
   style="stop-color:#606060;stop-opacity:1"
   offset="0.56870002" />
		<stop
   id="stop3939"
   style="stop-color:#ffffff;stop-opacity:1"
   offset="0.59140003" />
		<stop
   id="stop3941"
   style="stop-color:#585858;stop-opacity:1"
   offset="0.61159998" />
		<stop
   id="stop3943"
   style="stop-color:#303030;stop-opacity:1"
   offset="1" />
	</linearGradient><linearGradient
       x1="54.715801"
       y1="65.136703"
       x2="83.798798"
       y2="65.136703"
       id="SVGID_5_"
       gradientUnits="userSpaceOnUse">
		<stop
   id="stop3964"
   style="stop-color:#231f20;stop-opacity:1"
   offset="0" />
		<stop
   id="stop3966"
   style="stop-color:#474747;stop-opacity:1"
   offset="1" />
	</linearGradient><linearGradient
       x1="-123.5898"
       y1="119.8076"
       x2="-94.069099"
       y2="29.9035"
       id="SVGID_6_"
       gradientUnits="userSpaceOnUse"
       gradientTransform="matrix(1,0,0,-1,192.3999,143.0996)">
		<stop
   id="stop3997"
   style="stop-color:#ffffff;stop-opacity:1"
   offset="0" />
		<stop
   id="stop3999"
   style="stop-color:#fcfcfc;stop-opacity:1"
   offset="0.0094" />
		<stop
   id="stop4001"
   style="stop-color:#eeeeee;stop-opacity:1"
   offset="0.0655" />
		<stop
   id="stop4003"
   style="stop-color:#e5e5e5;stop-opacity:1"
   offset="0.13420001" />
		<stop
   id="stop4005"
   style="stop-color:#e3e3e3;stop-opacity:1"
   offset="0.25150001" />
		<stop
   id="stop4007"
   style="stop-color:#8a8a8a;stop-opacity:1"
   offset="0.33570001" />
		<stop
   id="stop4009"
   style="stop-color:#b8b8b8;stop-opacity:1"
   offset="0.44220001" />
		<stop
   id="stop4011"
   style="stop-color:#3b3b3b;stop-opacity:1"
   offset="1" />
	</linearGradient><linearGradient
       x1="70.421898"
       y1="26.876499"
       x2="119.5471"
       y2="87.626701"
       id="SVGID_7_"
       gradientUnits="userSpaceOnUse">
		<stop
   id="stop4016"
   style="stop-color:#eff0f0;stop-opacity:1"
   offset="0" />
		<stop
   id="stop4018"
   style="stop-color:#f0f1f2;stop-opacity:1"
   offset="0.59140003" />
		<stop
   id="stop4020"
   style="stop-color:#787878;stop-opacity:1"
   offset="0.59899998" />
		<stop
   id="stop4022"
   style="stop-color:#eeeff0;stop-opacity:1"
   offset="0.64560002" />
		<stop
   id="stop4024"
   style="stop-color:#d8d9db;stop-opacity:1"
   offset="1" />
	</linearGradient><linearGradient
       x1="-117.166"
       y1="122.1328"
       x2="-87.569702"
       y2="31.998501"
       id="SVGID_8_"
       gradientUnits="userSpaceOnUse"
       gradientTransform="matrix(1,0,0,-1,192.3999,143.0996)">
		<stop
   id="stop4029"
   style="stop-color:#ffffff;stop-opacity:1"
   offset="0" />
		<stop
   id="stop4031"
   style="stop-color:#e4e5e6;stop-opacity:1"
   offset="1" />
	</linearGradient><linearGradient
       x1="54.653301"
       y1="25.2764"
       x2="79.683601"
       y2="106.3903"
       id="SVGID_9_"
       gradientUnits="userSpaceOnUse">
		<stop
   id="stop4036"
   style="stop-color:#ffffff;stop-opacity:1"
   offset="0" />
		<stop
   id="stop4038"
   style="stop-color:#f9f9f9;stop-opacity:1"
   offset="0.74730003" />
		<stop
   id="stop4040"
   style="stop-color:#d5d7d8;stop-opacity:1"
   offset="1" />
	</linearGradient><linearGradient
       x1="-115.3369"
       y1="119.6328"
       x2="-134.85719"
       y2="24.6462"
       id="SVGID_10_"
       gradientUnits="userSpaceOnUse"
       gradientTransform="matrix(1,0,0,-1,192.3999,143.0996)">
		<stop
   id="stop4061"
   style="stop-color:#ffffff;stop-opacity:1"
   offset="0" />
		<stop
   id="stop4063"
   style="stop-color:#e4e5e6;stop-opacity:1"
   offset="1" />
	</linearGradient><linearGradient
       x1="32.519001"
       y1="33.077099"
       x2="37.2481"
       y2="92.496101"
       id="SVGID_11_"
       gradientUnits="userSpaceOnUse">
		<stop
   id="stop4068"
   style="stop-color:#989a9c;stop-opacity:1"
   offset="0.2198" />
		<stop
   id="stop4070"
   style="stop-color:#ffffff;stop-opacity:1"
   offset="0.2527" />
	</linearGradient><linearGradient
       x1="-152.6201"
       y1="126.8398"
       x2="-171.9462"
       y2="32.797901"
       id="SVGID_12_"
       gradientUnits="userSpaceOnUse"
       gradientTransform="matrix(1,0,0,-1,192.3999,143.0996)">
		<stop
   id="stop4075"
   style="stop-color:#ffffff;stop-opacity:1"
   offset="0" />
		<stop
   id="stop4077"
   style="stop-color:#e4e5e6;stop-opacity:1"
   offset="1" />
	</linearGradient><linearGradient
       x1="-130.1348"
       y1="35.625"
       x2="-130.14281"
       y2="35.585701"
       id="SVGID_13_"
       gradientUnits="userSpaceOnUse"
       gradientTransform="matrix(1,0,0,-1,192.3999,143.0996)">
		<stop
   id="stop4082"
   style="stop-color:#ffffff;stop-opacity:1"
   offset="0" />
		<stop
   id="stop4084"
   style="stop-color:#e4e5e6;stop-opacity:1"
   offset="1" />
	</linearGradient><linearGradient
       x1="-121.1382"
       y1="120.3223"
       x2="-140.54491"
       y2="25.888"
       id="SVGID_14_"
       gradientUnits="userSpaceOnUse"
       gradientTransform="matrix(1,0,0,-1,192.3999,143.0996)">
		<stop
   id="stop4093"
   style="stop-color:#ffffff;stop-opacity:1"
   offset="0" />
		<stop
   id="stop4095"
   style="stop-color:#e4e5e6;stop-opacity:1"
   offset="1" />
	</linearGradient><linearGradient
       x1="-135.58591"
       y1="123.3525"
       x2="-155.006"
       y2="28.8524"
       id="SVGID_15_"
       gradientUnits="userSpaceOnUse"
       gradientTransform="matrix(1,0,0,-1,192.3999,143.0996)">
		<stop
   id="stop4100"
   style="stop-color:#ffffff;stop-opacity:1"
   offset="0" />
		<stop
   id="stop4102"
   style="stop-color:#e4e5e6;stop-opacity:1"
   offset="1" />
	</linearGradient><linearGradient
       x1="-127.4014"
       y1="121.9365"
       x2="-146.8837"
       y2="27.1346"
       id="SVGID_16_"
       gradientUnits="userSpaceOnUse"
       gradientTransform="matrix(1,0,0,-1,192.3999,143.0996)">
		<stop
   id="stop4107"
   style="stop-color:#ffffff;stop-opacity:1"
   offset="0" />
		<stop
   id="stop4109"
   style="stop-color:#e4e5e6;stop-opacity:1"
   offset="1" />
	</linearGradient><linearGradient
       x1="-118.4946"
       y1="124.0039"
       x2="-138.85201"
       y2="24.9438"
       id="SVGID_17_"
       gradientUnits="userSpaceOnUse"
       gradientTransform="matrix(1,0,0,-1,192.3999,143.0996)">
		<stop
   id="stop4114"
   style="stop-color:#ffffff;stop-opacity:1"
   offset="0" />
		<stop
   id="stop4116"
   style="stop-color:#e4e5e6;stop-opacity:1"
   offset="1" />
	</linearGradient><linearGradient
       x1="-115.3716"
       y1="119.1758"
       x2="-134.7878"
       y2="24.695299"
       id="SVGID_18_"
       gradientUnits="userSpaceOnUse"
       gradientTransform="matrix(1,0,0,-1,192.3999,143.0996)">
		<stop
   id="stop4121"
   style="stop-color:#ffffff;stop-opacity:1"
   offset="0" />
		<stop
   id="stop4123"
   style="stop-color:#e4e5e6;stop-opacity:1"
   offset="1" />
	</linearGradient><linearGradient
       x1="-175.4424"
       y1="83.6045"
       x2="-75.6362"
       y2="83.6045"
       id="SVGID_21_"
       gradientUnits="userSpaceOnUse"
       gradientTransform="matrix(1,0,0,-1,192.3999,143.0996)">
		<stop
   id="stop4198"
   style="stop-color:#555555;stop-opacity:1"
   offset="0" />
		<stop
   id="stop4200"
   style="stop-color:#231f20;stop-opacity:1"
   offset="1" />
	</linearGradient><linearGradient
       x1="-175.14211"
       y1="104.0801"
       x2="-83.541"
       y2="104.0801"
       id="SVGID_22_"
       gradientUnits="userSpaceOnUse"
       gradientTransform="matrix(1,0,0,-1,192.3999,143.0996)">
		<stop
   id="stop4205"
   style="stop-color:#a0a0a0;stop-opacity:1"
   offset="0" />
		<stop
   id="stop4207"
   style="stop-color:#656767;stop-opacity:1"
   offset="0.0769" />
		<stop
   id="stop4209"
   style="stop-color:#717375;stop-opacity:1"
   offset="1" />
	</linearGradient><linearGradient
       x1="-172.3853"
       y1="78.209"
       x2="-172.3853"
       y2="78.209"
       id="SVGID_23_"
       gradientUnits="userSpaceOnUse"
       gradientTransform="matrix(1,0,0,-1,192.3999,143.0996)">
		<stop
   id="stop4224"
   style="stop-color:#ffffff;stop-opacity:1"
   offset="0" />
		<stop
   id="stop4226"
   style="stop-color:#f4f4f4;stop-opacity:1"
   offset="0.078" />
		<stop
   id="stop4228"
   style="stop-color:#cecece;stop-opacity:1"
   offset="0.38069999" />
		<stop
   id="stop4230"
   style="stop-color:#bfbfbf;stop-opacity:1"
   offset="0.53960001" />
		<stop
   id="stop4232"
   style="stop-color:#7c7c7c;stop-opacity:1"
   offset="0.83569998" />
		<stop
   id="stop4234"
   style="stop-color:#a8a8a8;stop-opacity:1"
   offset="0.89960003" />
		<stop
   id="stop4236"
   style="stop-color:#9a9a9a;stop-opacity:1"
   offset="0.90930003" />
		<stop
   id="stop4238"
   style="stop-color:#7d7d7d;stop-opacity:1"
   offset="0.93269998" />
		<stop
   id="stop4240"
   style="stop-color:#686868;stop-opacity:1"
   offset="0.9558" />
		<stop
   id="stop4242"
   style="stop-color:#5b5b5b;stop-opacity:1"
   offset="0.97850001" />
		<stop
   id="stop4244"
   style="stop-color:#575757;stop-opacity:1"
   offset="1" />
	</linearGradient><linearGradient
       x1="-175.7173"
       y1="78.449203"
       x2="-67.153198"
       y2="90.476799"
       id="SVGID_24_"
       gradientUnits="userSpaceOnUse"
       gradientTransform="matrix(1,0,0,-1,192.3999,143.0996)">
		<stop
   id="stop4249"
   style="stop-color:#ffffff;stop-opacity:1"
   offset="0" />
		<stop
   id="stop4251"
   style="stop-color:#f4f4f4;stop-opacity:1"
   offset="0.078" />
		<stop
   id="stop4253"
   style="stop-color:#cecece;stop-opacity:1"
   offset="0.38069999" />
		<stop
   id="stop4255"
   style="stop-color:#bfbfbf;stop-opacity:1"
   offset="0.53960001" />
		<stop
   id="stop4257"
   style="stop-color:#7c7c7c;stop-opacity:1"
   offset="0.83569998" />
		<stop
   id="stop4259"
   style="stop-color:#a8a8a8;stop-opacity:1"
   offset="0.89960003" />
		<stop
   id="stop4261"
   style="stop-color:#9a9a9a;stop-opacity:1"
   offset="0.90930003" />
		<stop
   id="stop4263"
   style="stop-color:#7d7d7d;stop-opacity:1"
   offset="0.93269998" />
		<stop
   id="stop4265"
   style="stop-color:#686868;stop-opacity:1"
   offset="0.9558" />
		<stop
   id="stop4267"
   style="stop-color:#5b5b5b;stop-opacity:1"
   offset="0.97850001" />
		<stop
   id="stop4269"
   style="stop-color:#575757;stop-opacity:1"
   offset="1" />
	</linearGradient><linearGradient
       x1="-176.1851"
       y1="78.4795"
       x2="-52.131699"
       y2="92.223099"
       id="SVGID_25_"
       gradientUnits="userSpaceOnUse"
       gradientTransform="matrix(1,0,0,-1,192.3999,143.0996)">
		<stop
   id="stop4274"
   style="stop-color:#ffffff;stop-opacity:1"
   offset="0" />
		<stop
   id="stop4276"
   style="stop-color:#f4f4f4;stop-opacity:1"
   offset="0.078" />
		<stop
   id="stop4278"
   style="stop-color:#cecece;stop-opacity:1"
   offset="0.38069999" />
		<stop
   id="stop4280"
   style="stop-color:#bfbfbf;stop-opacity:1"
   offset="0.53960001" />
		<stop
   id="stop4282"
   style="stop-color:#7c7c7c;stop-opacity:1"
   offset="0.83569998" />
		<stop
   id="stop4284"
   style="stop-color:#a8a8a8;stop-opacity:1"
   offset="0.89960003" />
		<stop
   id="stop4286"
   style="stop-color:#9a9a9a;stop-opacity:1"
   offset="0.90930003" />
		<stop
   id="stop4288"
   style="stop-color:#7d7d7d;stop-opacity:1"
   offset="0.93269998" />
		<stop
   id="stop4290"
   style="stop-color:#686868;stop-opacity:1"
   offset="0.9558" />
		<stop
   id="stop4292"
   style="stop-color:#5b5b5b;stop-opacity:1"
   offset="0.97850001" />
		<stop
   id="stop4294"
   style="stop-color:#575757;stop-opacity:1"
   offset="1" />
	</linearGradient><linearGradient
       x1="21.2129"
       y1="71.326698"
       x2="117.1948"
       y2="51.952599"
       id="SVGID_26_"
       gradientUnits="userSpaceOnUse">
		<stop
   id="stop4299"
   style="stop-color:#ededee;stop-opacity:1"
   offset="0" />
		<stop
   id="stop4301"
   style="stop-color:#ffffff;stop-opacity:1"
   offset="0.41760001" />
		<stop
   id="stop4303"
   style="stop-color:#f8f9f9;stop-opacity:1"
   offset="0.62639999" />
		<stop
   id="stop4305"
   style="stop-color:#bfc0c2;stop-opacity:1"
   offset="1" />
	</linearGradient><linearGradient
       x1="23.471201"
       y1="30.732401"
       x2="27.9561"
       y2="30.732401"
       id="SVGID_27_"
       gradientUnits="userSpaceOnUse">
		<stop
   id="stop4316"
   style="stop-color:#e2e3e4;stop-opacity:1"
   offset="0" />
		<stop
   id="stop4318"
   style="stop-color:#ffffff;stop-opacity:1"
   offset="0.50550002" />
	</linearGradient><linearGradient
       x1="22.5742"
       y1="49.7188"
       x2="111.5455"
       y2="29.204"
       id="SVGID_34_"
       gradientUnits="userSpaceOnUse">
		<stop
   id="stop4743"
   style="stop-color:#ffffff;stop-opacity:1"
   offset="0" />
		<stop
   id="stop4745"
   style="stop-color:#ffffff;stop-opacity:1"
   offset="0.65380001" />
		<stop
   id="stop4747"
   style="stop-color:#cbccce;stop-opacity:1"
   offset="1" />
	</linearGradient><linearGradient
       x1="-158.8101"
       y1="107.0898"
       x2="-126.4229"
       y2="107.0898"
       id="SVGID_35_"
       gradientUnits="userSpaceOnUse"
       gradientTransform="matrix(1,0,0,-1,192.3999,143.0996)">
		<stop
   id="stop4770"
   style="stop-color:#696969;stop-opacity:1"
   offset="0" />
		<stop
   id="stop4772"
   style="stop-color:#2e2e2e;stop-opacity:1"
   offset="0.37020001" />
		<stop
   id="stop4774"
   style="stop-color:#424242;stop-opacity:1"
   offset="0.45539999" />
		<stop
   id="stop4776"
   style="stop-color:#303030;stop-opacity:1"
   offset="0.60140002" />
		<stop
   id="stop4778"
   style="stop-color:#4a4a4a;stop-opacity:1"
   offset="0.6947" />
		<stop
   id="stop4780"
   style="stop-color:#666666;stop-opacity:1"
   offset="1" />
	</linearGradient><linearGradient
       x1="-158.4185"
       y1="107.8965"
       x2="-126.5454"
       y2="107.8965"
       id="SVGID_36_"
       gradientUnits="userSpaceOnUse"
       gradientTransform="matrix(1,0,0,-1,192.3999,143.0996)">
		<stop
   id="stop4785"
   style="stop-color:#525252;stop-opacity:1"
   offset="0" />
		<stop
   id="stop4787"
   style="stop-color:#333333;stop-opacity:1"
   offset="0.1856" />
		<stop
   id="stop4789"
   style="stop-color:#aeaeae;stop-opacity:1"
   offset="0.354" />
		<stop
   id="stop4791"
   style="stop-color:#adadad;stop-opacity:1"
   offset="0.4199" />
		<stop
   id="stop4793"
   style="stop-color:#9d9d9d;stop-opacity:1"
   offset="0.4276" />
		<stop
   id="stop4795"
   style="stop-color:#818181;stop-opacity:1"
   offset="0.44330001" />
		<stop
   id="stop4797"
   style="stop-color:#6a6a6a;stop-opacity:1"
   offset="0.46110001" />
		<stop
   id="stop4799"
   style="stop-color:#585858;stop-opacity:1"
   offset="0.48140001" />
		<stop
   id="stop4801"
   style="stop-color:#4c4c4c;stop-opacity:1"
   offset="0.50599998" />
		<stop
   id="stop4803"
   style="stop-color:#444444;stop-opacity:1"
   offset="0.53899997" />
		<stop
   id="stop4805"
   style="stop-color:#424242;stop-opacity:1"
   offset="0.61659998" />
		<stop
   id="stop4807"
   style="stop-color:#454545;stop-opacity:1"
   offset="0.66839999" />
		<stop
   id="stop4809"
   style="stop-color:#bdbdbd;stop-opacity:1"
   offset="1" />
	</linearGradient><linearGradient
       x1="-153.1255"
       y1="97.627899"
       x2="-154.15421"
       y2="104.4332"
       id="SVGID_37_"
       gradientUnits="userSpaceOnUse"
       gradientTransform="matrix(1,0,0,-1,192.3999,143.0996)">
		<stop
   id="stop4814"
   style="stop-color:#969696;stop-opacity:1"
   offset="0" />
		<stop
   id="stop4816"
   style="stop-color:#000000;stop-opacity:1"
   offset="1" />
	</linearGradient><linearGradient
       x1="38.737301"
       y1="46.373001"
       x2="39.487301"
       y2="38.790001"
       id="SVGID_38_"
       gradientUnits="userSpaceOnUse">
		<stop
   id="stop4825"
   style="stop-color:#333333;stop-opacity:1"
   offset="0" />
		<stop
   id="stop4827"
   style="stop-color:#000000;stop-opacity:1"
   offset="0.43099999" />
		<stop
   id="stop4829"
   style="stop-color:#2e2e2e;stop-opacity:1"
   offset="1" />
	</linearGradient><radialGradient
       cx="-138.2334"
       cy="106.5996"
       r="72.751701"
       id="SVGID_39_"
       gradientUnits="userSpaceOnUse"
       gradientTransform="matrix(1,0,0,-1,192.3999,143.0996)">
		<stop
   id="stop4840"
   style="stop-color:#000000;stop-opacity:0"
   offset="0" />
		<stop
   id="stop4842"
   style="stop-color:#000000;stop-opacity:0.08"
   offset="0.80220002" />
		<stop
   id="stop4844"
   style="stop-color:#000000;stop-opacity:0.3882353"
   offset="1" />
	</radialGradient><radialGradient
       cx="-138.2334"
       cy="106.5996"
       r="72.751701"
       id="radialGradient5007"
       xlink:href="#SVGID_39_"
       gradientUnits="userSpaceOnUse"
       gradientTransform="matrix(1,0,0,-1,192.3999,143.0996)" /><linearGradient
       x1="38.737301"
       y1="46.373001"
       x2="39.487301"
       y2="38.790001"
       id="linearGradient5013"
       xlink:href="#SVGID_38_"
       gradientUnits="userSpaceOnUse" /><linearGradient
       x1="-153.1255"
       y1="97.627899"
       x2="-154.15421"
       y2="104.4332"
       id="linearGradient5018"
       xlink:href="#SVGID_37_"
       gradientUnits="userSpaceOnUse"
       gradientTransform="matrix(1,0,0,-1,192.3999,143.0996)" /><linearGradient
       x1="-158.4185"
       y1="107.8965"
       x2="-126.5454"
       y2="107.8965"
       id="linearGradient5021"
       xlink:href="#SVGID_36_"
       gradientUnits="userSpaceOnUse"
       gradientTransform="matrix(1,0,0,-1,192.3999,143.0996)" /><linearGradient
       x1="-158.8101"
       y1="107.0898"
       x2="-126.4229"
       y2="107.0898"
       id="linearGradient5024"
       xlink:href="#SVGID_35_"
       gradientUnits="userSpaceOnUse"
       gradientTransform="matrix(1,0,0,-1,192.3999,143.0996)" /><linearGradient
       x1="22.5742"
       y1="49.7188"
       x2="111.5455"
       y2="29.204"
       id="linearGradient5036"
       xlink:href="#SVGID_34_"
       gradientUnits="userSpaceOnUse" /><linearGradient
       x1="23.471201"
       y1="30.732401"
       x2="27.9561"
       y2="30.732401"
       id="linearGradient5252"
       xlink:href="#SVGID_27_"
       gradientUnits="userSpaceOnUse" /><linearGradient
       x1="21.2129"
       y1="71.326698"
       x2="117.1948"
       y2="51.952599"
       id="linearGradient5258"
       xlink:href="#SVGID_26_"
       gradientUnits="userSpaceOnUse" /><linearGradient
       x1="-176.1851"
       y1="78.4795"
       x2="-52.131699"
       y2="92.223099"
       id="linearGradient5261"
       xlink:href="#SVGID_25_"
       gradientUnits="userSpaceOnUse"
       gradientTransform="matrix(1,0,0,-1,192.3999,143.0996)" /><linearGradient
       x1="-175.7173"
       y1="78.449203"
       x2="-67.153198"
       y2="90.476799"
       id="linearGradient5264"
       xlink:href="#SVGID_24_"
       gradientUnits="userSpaceOnUse"
       gradientTransform="matrix(1,0,0,-1,192.3999,143.0996)" /><linearGradient
       x1="-172.3853"
       y1="78.209"
       x2="-172.3853"
       y2="78.209"
       id="linearGradient5267"
       xlink:href="#SVGID_23_"
       gradientUnits="userSpaceOnUse"
       gradientTransform="matrix(1,0,0,-1,192.3999,143.0996)" /><linearGradient
       x1="-175.14211"
       y1="104.0801"
       x2="-83.541"
       y2="104.0801"
       id="linearGradient5275"
       xlink:href="#SVGID_22_"
       gradientUnits="userSpaceOnUse"
       gradientTransform="matrix(1,0,0,-1,192.3999,143.0996)" /><linearGradient
       x1="-175.4424"
       y1="83.6045"
       x2="-75.6362"
       y2="83.6045"
       id="linearGradient5278"
       xlink:href="#SVGID_21_"
       gradientUnits="userSpaceOnUse"
       gradientTransform="matrix(1,0,0,-1,192.3999,143.0996)" /><linearGradient
       x1="-115.3716"
       y1="119.1758"
       x2="-134.7878"
       y2="24.695299"
       id="linearGradient5317"
       xlink:href="#SVGID_18_"
       gradientUnits="userSpaceOnUse"
       gradientTransform="matrix(1,0,0,-1,192.3999,143.0996)" /><linearGradient
       x1="-118.4946"
       y1="124.0039"
       x2="-138.85201"
       y2="24.9438"
       id="linearGradient5320"
       xlink:href="#SVGID_17_"
       gradientUnits="userSpaceOnUse"
       gradientTransform="matrix(1,0,0,-1,192.3999,143.0996)" /><linearGradient
       x1="-127.4014"
       y1="121.9365"
       x2="-146.8837"
       y2="27.1346"
       id="linearGradient5323"
       xlink:href="#SVGID_16_"
       gradientUnits="userSpaceOnUse"
       gradientTransform="matrix(1,0,0,-1,192.3999,143.0996)" /><linearGradient
       x1="-135.58591"
       y1="123.3525"
       x2="-155.006"
       y2="28.8524"
       id="linearGradient5326"
       xlink:href="#SVGID_15_"
       gradientUnits="userSpaceOnUse"
       gradientTransform="matrix(1,0,0,-1,192.3999,143.0996)" /><linearGradient
       x1="-121.1382"
       y1="120.3223"
       x2="-140.54491"
       y2="25.888"
       id="linearGradient5329"
       xlink:href="#SVGID_14_"
       gradientUnits="userSpaceOnUse"
       gradientTransform="matrix(1,0,0,-1,192.3999,143.0996)" /><linearGradient
       x1="-130.1348"
       y1="35.625"
       x2="-130.14281"
       y2="35.585701"
       id="linearGradient5334"
       xlink:href="#SVGID_13_"
       gradientUnits="userSpaceOnUse"
       gradientTransform="matrix(1,0,0,-1,192.3999,143.0996)" /><linearGradient
       x1="-152.6201"
       y1="126.8398"
       x2="-171.9462"
       y2="32.797901"
       id="linearGradient5337"
       xlink:href="#SVGID_12_"
       gradientUnits="userSpaceOnUse"
       gradientTransform="matrix(1,0,0,-1,192.3999,143.0996)" /><linearGradient
       x1="32.519001"
       y1="33.077099"
       x2="37.2481"
       y2="92.496101"
       id="linearGradient5340"
       xlink:href="#SVGID_11_"
       gradientUnits="userSpaceOnUse" /><linearGradient
       x1="-115.3369"
       y1="119.6328"
       x2="-134.85719"
       y2="24.6462"
       id="linearGradient5343"
       xlink:href="#SVGID_10_"
       gradientUnits="userSpaceOnUse"
       gradientTransform="matrix(1,0,0,-1,192.3999,143.0996)" /><linearGradient
       x1="54.653301"
       y1="25.2764"
       x2="79.683601"
       y2="106.3903"
       id="linearGradient5354"
       xlink:href="#SVGID_9_"
       gradientUnits="userSpaceOnUse" /><linearGradient
       x1="-117.166"
       y1="122.1328"
       x2="-87.569702"
       y2="31.998501"
       id="linearGradient5357"
       xlink:href="#SVGID_8_"
       gradientUnits="userSpaceOnUse"
       gradientTransform="matrix(1,0,0,-1,192.3999,143.0996)" /><linearGradient
       x1="70.421898"
       y1="26.876499"
       x2="119.5471"
       y2="87.626701"
       id="linearGradient5360"
       xlink:href="#SVGID_7_"
       gradientUnits="userSpaceOnUse" /><linearGradient
       x1="-123.5898"
       y1="119.8076"
       x2="-94.069099"
       y2="29.9035"
       id="linearGradient5363"
       xlink:href="#SVGID_6_"
       gradientUnits="userSpaceOnUse"
       gradientTransform="matrix(1,0,0,-1,192.3999,143.0996)" /><linearGradient
       x1="54.715801"
       y1="65.136703"
       x2="83.798798"
       y2="65.136703"
       id="linearGradient5379"
       xlink:href="#SVGID_5_"
       gradientUnits="userSpaceOnUse" /><linearGradient
       x1="66.232399"
       y1="24.481001"
       x2="112.7331"
       y2="97.232101"
       id="linearGradient5391"
       xlink:href="#SVGID_2_"
       gradientUnits="userSpaceOnUse" /><radialGradient
       cx="-145.4702"
       cy="87.823196"
       r="68.686401"
       id="radialGradient5395"
       xlink:href="#SVGID_1_"
       gradientUnits="userSpaceOnUse"
       gradientTransform="matrix(1,0,0,-1,192.3999,143.0996)" /></defs><g
     transform="translate(-8.009,-115.22)"
     id="Wikipedia">
		<path
   d="m 18.757,118.893 c 0,0 -0.367,-0.746 -0.492,-0.994 -0.834,-1.653 -0.816,-1.741 -1.659,-1.852 -0.236,-0.031 -0.358,-0.061 -0.358,-0.178 v -0.523 l 0.071,-0.051 c 1.523,-0.002 4.912,-0.002 4.912,-0.002 l 0.13,0.043 v 0.521 c 0,0.119 -0.085,0.18 -0.258,0.18 l -0.356,0.051 c -0.9,0.07 -0.753,0.438 -0.155,1.629 l 5.677,11.615 0.194,0.053 5.04,-11.961 c 0.175,-0.482 0.148,-0.824 -0.077,-1.025 -0.226,-0.196 -0.385,-0.312 -0.969,-0.336 l -0.473,-0.024 c -0.058,0 -0.113,-0.021 -0.166,-0.06 -0.052,-0.037 -0.079,-0.086 -0.079,-0.145 v -0.498 l 0.072,-0.051 c 1.42,0 5.694,0 5.694,0 l 0.058,0.051 v 0.498 c 0,0.135 -0.077,0.203 -0.229,0.203 -0.746,0.033 -1.299,0.195 -1.657,0.484 -0.359,0.291 -0.639,0.692 -0.84,1.213 0,0 -4.635,10.609 -6.221,14.135 -0.607,1.156 -1.204,1.05 -1.729,-0.033 -1.109,-2.284 -4.232,-9.213 -4.232,-9.213 l -1.898,-3.73 z"
   id="path3898" />
		<path
   d="m 27.853,115.287 c 0,0 -3.203,-0.01 -4.629,0 l -0.071,0.051 v 0.496 c 0,0.061 0.026,0.109 0.078,0.146 0.053,0.039 0.107,0.059 0.165,0.059 l 0.229,0.025 c 0.583,0.024 0.851,0.177 0.931,0.273 0.139,0.17 0.208,0.354 -0.129,1.089 l -5.98,11.927 -0.157,-0.041 c 0,0 -4.283,-9.031 -5.523,-12.052 -0.129,-0.313 -0.187,-0.545 -0.187,-0.688 0,-0.307 0.277,-0.473 0.831,-0.496 l 0.646,-0.027 c 0.171,0 0.258,-0.066 0.258,-0.203 v -0.496 l -0.058,-0.051 c 0,0 -5.13,-0.006 -6.19,0 l -0.058,0.051 v 0.521 c 0,0.094 0.119,0.152 0.358,0.178 0.651,0.035 1.079,0.139 1.285,0.312 0.205,0.175 0.422,0.617 0.71,1.306 1.557,3.74 4.865,10.414 6.476,14.215 0.464,1.038 1.047,1.199 1.755,-0.032 1.226,-2.274 4.55,-9.218 4.55,-9.218 l 2.618,-4.896 c 0.305,-0.517 0.599,-0.978 0.748,-1.193 0.273,-0.393 0.426,-0.467 1.172,-0.502 0.152,0 0.229,-0.068 0.229,-0.205 v -0.496 l -0.057,-0.053 z"
   id="path3900" />
		<path
   d="m 21.535,126.689 c -0.02,0.066 0.188,0.293 0.253,0.313 l 0.155,-0.098 c 0.064,0.02 0.203,-0.041 0.223,-0.105 l 0.027,-0.264 -0.279,-1.304 c -0.051,-0.067 -0.09,-0.018 -0.107,0.043 l -0.272,1.415 z"
   id="path3902"
   style="fill:#ffffff" />
		<path
   d="m 37.592,130.77 c 0,0.572 0.26,0.91 1.092,0.988 l 0.546,0.053 c 0.078,0 0.156,0.051 0.156,0.155 v 0.546 l -0.026,0.053 c 0,0 -1.976,-0.053 -2.782,-0.053 -0.728,0 -2.756,0.053 -2.756,0.053 l -0.052,-0.053 v -0.546 c 0,-0.104 0.078,-0.155 0.182,-0.155 l 0.52,-0.053 c 0.858,-0.078 1.118,-0.494 1.118,-0.988 v -8.658 c 0,-0.571 -0.313,-0.729 -1.118,-0.805 l -0.52,-0.054 c -0.104,0 -0.182,-0.024 -0.182,-0.104 v -0.599 l 0.026,-0.052 c 0,0 2.054,0.052 2.86,0.052 0.702,0 2.704,-0.052 2.704,-0.052 l 0.026,0.052 v 0.572 c 0,0.078 -0.052,0.13 -0.156,0.13 l -0.546,0.053 c -0.806,0.077 -1.092,0.286 -1.092,0.807 v 8.658 z"
   id="path3904" />
		<path
   d="m 45.265,130.77 c 0,0.572 0.338,0.858 1.092,0.988 l 0.286,0.053 c 0.078,0.025 0.156,0.051 0.156,0.155 v 0.546 l -0.026,0.053 c 0,0 -1.638,-0.053 -2.418,-0.053 -0.728,0 -2.86,0.053 -2.86,0.053 l -0.052,-0.053 v -0.546 c 0,-0.104 0.078,-0.155 0.182,-0.155 l 0.52,-0.053 c 0.78,-0.078 1.118,-0.494 1.118,-0.988 v -8.658 c 0,-0.571 -0.286,-0.729 -1.118,-0.805 l -0.52,-0.054 c -0.104,0 -0.182,-0.024 -0.182,-0.104 v -0.599 l 0.026,-0.052 c 0,0 2.132,0.052 2.938,0.052 0.729,0 2.366,-0.052 2.366,-0.052 l 0.026,0.052 v 0.572 c 0,0.078 -0.052,0.104 -0.156,0.13 l -0.286,0.053 c -0.806,0.155 -1.092,0.286 -1.092,0.807 v 3.926 c 0.858,0 1.352,-0.441 2.496,-1.664 1.04,-1.145 1.846,-2.105 1.846,-2.6 0,-0.209 -0.234,-0.442 -0.754,-0.521 -0.104,-0.025 -0.156,-0.052 -0.156,-0.13 v -0.599 l 0.026,-0.025 c 0,0 2.106,0.052 2.86,0.052 0.676,0 1.82,-0.052 1.82,-0.052 l 0.078,0.025 v 0.599 c 0,0.078 -0.078,0.13 -0.208,0.13 -1.014,0.078 -1.716,0.13 -2.652,1.196 l -2.236,2.573 c -0.442,0.469 -0.598,0.754 -0.598,0.963 0,0.156 0.104,0.285 0.234,0.441 l 3.926,4.732 c 0.312,0.363 0.936,0.52 1.456,0.623 l 0.13,0.025 c 0.078,0.026 0.182,0.078 0.182,0.156 v 0.546 l -0.078,0.026 c 0,0 -1.378,-0.026 -2.106,-0.026 -0.65,0 -1.586,0.026 -1.586,0.026 l -0.026,-0.026 v -0.312 c 0,-0.339 -0.026,-0.623 -0.39,-1.039 l -2.886,-3.589 c -0.39,-0.521 -0.806,-0.649 -1.378,-0.649 v 3.851 l 0,0 z"
   id="path3906" />
		<path
   d="m 59.282,130.77 c 0,0.572 0.26,0.91 1.092,0.988 l 0.546,0.053 c 0.078,0 0.156,0.051 0.156,0.155 v 0.546 l -0.026,0.053 c 0,0 -1.976,-0.053 -2.782,-0.053 -0.728,0 -2.756,0.053 -2.756,0.053 l -0.052,-0.053 v -0.546 c 0,-0.104 0.078,-0.155 0.182,-0.155 l 0.52,-0.053 c 0.858,-0.078 1.118,-0.494 1.118,-0.988 v -8.658 c 0,-0.571 -0.312,-0.729 -1.118,-0.805 l -0.52,-0.054 c -0.104,0 -0.182,-0.024 -0.182,-0.104 v -0.599 l 0.026,-0.052 c 0,0 2.054,0.052 2.86,0.052 0.702,0 2.704,-0.052 2.704,-0.052 l 0.026,0.052 v 0.572 c 0,0.078 -0.052,0.13 -0.156,0.13 l -0.546,0.053 c -0.806,0.077 -1.092,0.286 -1.092,0.807 v 8.658 z"
   id="path3908" />
		<path
   d="m 64.9,122.163 c 0,-0.806 -0.338,-0.832 -1.56,-0.91 -0.156,0 -0.182,-0.077 -0.182,-0.13 v -0.598 l 0.052,-0.026 c 0.39,0 1.924,0.052 2.678,0.052 0.728,0 1.768,-0.052 2.73,-0.052 3.69,0 4.366,1.819 4.366,3.173 0,1.561 -0.754,4.004 -4.444,4.004 -0.65,0 -1.17,-0.053 -1.639,-0.26 v 3.482 c 0,0.572 0.312,0.703 1.145,0.832 l 0.521,0.078 c 0.104,0.026 0.182,0.053 0.182,0.156 v 0.546 l -0.025,0.052 c 0,0 -2.08,-0.052 -2.886,-0.052 -0.728,0 -2.678,0.052 -2.678,0.052 l -0.026,-0.052 v -0.546 c 0,-0.104 0.052,-0.13 0.156,-0.156 l 0.546,-0.078 c 0.806,-0.104 1.066,-0.338 1.066,-0.832 l -0.002,-8.735 0,0 z m 2.002,4.525 c 0.52,0.209 1.17,0.234 1.69,0.234 1.561,0 2.312,-0.938 2.312,-2.938 0,-2.236 -1.014,-2.73 -2.442,-2.73 -1.249,0 -1.561,0.234 -1.561,0.91 l 0.001,4.524 0,0 z"
   id="path3910" />
		<path
   d="m 84.235435,120.55 -4.836,0 -1.872,0 -2.6,-0.052 -0.026,0.052 0,0.572 c 0,0.026 0,0.078 0.156,0.104 l 0.598,0.052 c 0.727999,0.052 1.04,0.208 1.04,0.806 l 0,8.866 c 0,0.52 -0.234001,0.728 -1.04,0.806 l -0.598,0.052 c -0.13,0 -0.156,0.078 -0.156,0.13 l 0,0.572 0.026,0.052 2.574,-0.052 6.864,0 c 0.052,-0.832 0.234,-1.898 0.546,-3.172 l -0.65,-0.078 c -0.415999,1.326 -0.988001,2.366 -2.574,2.366 l -2.236,0 c -0.467999,0 -0.754,-0.13 -0.754,-0.624 l 0,-4.342 1.95,0 c 0.675999,0 0.91,0.286 1.014,0.806 l 0.13,0.572 c 0,0.078 0.052,0.13 0.182,0.13 l 0.442,0 0.052,-0.052 c -0.052,-0.598 -0.156,-1.144 -0.156,-1.794 0,-0.624 0.104,-1.352 0.156,-1.924 0,-0.052 0,-0.078 -0.052,-0.078 l -0.442,0 c -0.104,0 -0.156,0.052 -0.156,0.13 l -0.156,0.546 c -0.104,0.52 -0.286001,0.832 -1.014,0.832 l -1.95,0 0,-3.848 c 0,-0.442 0.260001,-0.546 0.754,-0.546 l 2.08,0 c 1.663998,0 2.158,1.378 2.418,2.314 l 0.65,-0.078 c -0.182,-0.988 -0.338,-2.002 -0.364,-3.12 m -3.432,-5.278 -2.08,3.276 c -0.156,0.26 -0.156,0.442 -0.156,0.598 0,0.156 0.182,0.312 0.364,0.312 0.182,0 0.364001,-0.13 0.754,-0.52 l 2.99,-2.834 -0.078,-0.286 c -0.052,-0.026 -0.104,-0.078 -0.156,-0.13 -0.208,-0.182 -0.546001,-0.468 -1.274,-0.468 -0.13,0 -0.286,0.026 -0.364,0.052"
   id="path15072" />
		<path
   d="m 87.24,131.811 0.598,-0.053 c 0.781,-0.078 1.041,-0.312 1.041,-1.117 v -8.58 c 0,-0.678 -0.184,-0.678 -1.041,-0.754 l -0.57,-0.054 c -0.104,0 -0.184,-0.052 -0.184,-0.13 v -0.572 l 0.025,-0.052 c 0,0 2.289,0.052 2.758,0.052 0.492,0 2.756,-0.052 3.432,-0.052 4.342,0 6.475,2.704 6.475,6.162 0,4.551 -3.225,5.901 -6.11,5.901 -2.08,0 -2.989,-0.052 -3.795,-0.052 -0.781,0 -2.757,0.052 -2.757,0.052 l -0.026,-0.052 v -0.546 c -0.002,-0.075 0.051,-0.153 0.154,-0.153 z m 5.799,0 c 2.859,0 4.473,-1.065 4.473,-4.707 0,-2.703 -0.599,-5.851 -4.967,-5.851 -1.014,0 -1.664,0.156 -1.664,0.808 v 8.58 c 0,0.726 0.181,1.17 2.158,1.17 z"
   id="path3914" />
		<path
   d="m 105.912,130.77 c 0,0.572 0.26,0.91 1.092,0.988 l 0.546,0.053 c 0.078,0 0.156,0.051 0.156,0.155 v 0.546 l -0.026,0.053 c 0,0 -1.976,-0.053 -2.781,-0.053 -0.729,0 -2.756,0.053 -2.756,0.053 l -0.053,-0.053 v -0.546 c 0,-0.104 0.078,-0.155 0.182,-0.155 l 0.521,-0.053 c 0.857,-0.078 1.118,-0.494 1.118,-0.988 v -8.658 c 0,-0.571 -0.313,-0.729 -1.118,-0.805 l -0.521,-0.054 c -0.104,0 -0.182,-0.024 -0.182,-0.104 v -0.599 l 0.026,-0.052 c 0,0 2.054,0.052 2.858,0.052 0.702,0 2.705,-0.052 2.705,-0.052 l 0.025,0.052 v 0.572 c 0,0.078 -0.053,0.13 -0.156,0.13 l -0.546,0.053 c -0.806,0.077 -1.092,0.286 -1.092,0.807 l 0.002,8.658 0,0 z"
   id="path3916" />
		<path
   d="m 113.922,131.758 0.754,0.053 c 0.104,0 0.208,0.078 0.208,0.207 v 0.494 l -0.052,0.053 c 0,0 -2.834,-0.053 -3.458,-0.053 -0.677,0 -2.341,0.053 -2.341,0.053 l -0.053,-0.053 v -0.494 c 0,-0.129 0.078,-0.207 0.209,-0.207 1.145,-0.078 1.793,-0.287 2.521,-1.951 l 5.771,-13.521 c 0.285,-0.676 0.494,-0.937 0.885,-0.937 0.363,0 0.494,0.261 0.701,0.781 l 5.33,14.092 c 0.365,1.015 0.885,1.404 1.925,1.508 l 0.286,0.025 c 0.13,0 0.26,0.078 0.26,0.209 v 0.493 l -0.078,0.052 c 0,0 -2.002,-0.052 -3.016,-0.052 -0.91,0 -3.459,0.052 -3.459,0.052 l -0.025,-0.052 v -0.493 c 0,-0.131 0.052,-0.209 0.184,-0.209 l 0.728,-0.052 c 0.987,-0.077 1.353,-0.391 1.092,-1.118 l -1.586,-4.395 H 115.3 c -0.624,0 -0.78,0.104 -0.909,0.441 l -1.509,3.771 c -0.26,0.652 0.078,1.225 1.04,1.303 z m 6.37,-6.606 -2.522,-6.941 h -0.052 l -2.6,6.604 c -0.104,0.261 0.077,0.338 0.649,0.338 h 4.525 z"
   id="path3918" />
	</g><g
     transform="matrix(1.019926,0,0,0.98046329,-8.009,-115.22)"
     id="The_Free_Encyclopedia"
     style="font-size:13.25903797px;font-style:normal;font-variant:normal;font-weight:normal;font-stretch:normal;letter-spacing:0.30296317;fill:#000000;fill-opacity:1;stroke:none;font-family:Linux Libertine O;-inkscape-font-specification:Linux Libertine O"><path
       d="m 14.358317,146.17682 c -0.291698,0 -0.384512,-0.0398 -0.331476,-0.17237 l 1.325904,-3.3678 0.02652,0 1.286127,3.54017 -2.307073,0 m -1.471753,2.70484 0.769024,-1.92256 c 0.0663,-0.17237 0.14585,-0.22541 0.464066,-0.22541 l 2.75788,0 0.808802,2.24078 c 0.13259,0.37125 -0.05304,0.53036 -0.55688,0.57014 l -0.371253,0.0265 c -0.0663,0 -0.09281,0.0398 -0.09281,0.10607 l 0,0.25192 0.01326,0.0265 c 0.490584,-0.0133 1.24635,-0.0265 1.763452,-0.0265 0.54362,0 1.060723,0.0133 1.551307,0.0265 l 0.02652,-0.0265 0,-0.25192 c 0,-0.0663 -0.0663,-0.10607 -0.13259,-0.10607 l -0.14585,-0.0133 c -0.530361,-0.053 -0.795542,-0.25192 -0.981168,-0.76902 l -2.718103,-7.1864 c -0.09281,-0.25192 -0.172368,-0.39777 -0.357994,-0.39777 -0.198886,0 -0.291699,0.11933 -0.450807,0.47732 l -2.943507,6.8947 c -0.344735,0.82206 -0.702729,0.95465 -1.286127,0.99443 -0.0663,0 -0.106072,0.0398 -0.106072,0.10607 l 0,0.25192 0.02652,0.0265 c 0.490584,-0.0133 0.70273,-0.0265 1.219832,-0.0265 0.54362,0 1.24635,0.0133 1.736934,0.0265 l 0.02652,-0.0265 0,-0.25192 c 0,-0.0663 -0.05304,-0.10607 -0.106073,-0.10607 l -0.384512,-0.0265 c -0.490584,-0.0398 -0.67621,-0.30496 -0.530361,-0.66295"
       id="path16044" /><path
       d="m 25.562358,146.12378 c 0.238662,-1.49827 1.219831,-1.56457 1.524789,-1.56457 0.477325,0 1.1005,0.26518 1.1005,1.37894 0,0.11933 -0.05304,0.18563 -0.185626,0.18563 l -2.439663,0 m 3.500386,2.54573 c -0.464066,0.50385 -0.928134,0.74251 -1.65738,0.74251 -0.742505,0 -1.882783,-0.79554 -1.882783,-2.77114 l 3.487127,0 c 0.145849,0 0.238662,-0.0796 0.238662,-0.2254 0,-1.11376 -0.411032,-2.30707 -2.161223,-2.30707 -1.259607,0 -2.625289,1.16679 -2.625289,3.18216 0,1.52479 0.808803,2.77114 2.625289,2.77114 0.95465,0 1.736935,-0.49058 2.240777,-1.18005 -0.03978,-0.13259 -0.119331,-0.19889 -0.26518,-0.21215"
       id="path16046" /><path
       d="m 32.18636,144.10841 c 0,-0.0265 -0.02652,-0.0398 -0.05304,-0.0398 -0.371252,0.14585 -0.901615,0.26518 -1.829747,0.41103 l 0.02652,0.31822 0.570139,0.053 c 0.185626,0.0265 0.291699,0.15911 0.291699,0.82206 l 0,3.3015 c 0,0.38451 -0.132591,0.53036 -0.570139,0.57014 l -0.251922,0.0265 c -0.0663,0.0133 -0.106072,0.0398 -0.106072,0.10607 l 0,0.25192 0.02652,0.0265 c 0.530361,-0.0133 0.861838,-0.0265 1.37894,-0.0265 0.54362,0 0.822061,0.0133 1.352422,0.0265 l 0.02652,-0.0265 0,-0.25192 c 0,-0.0663 -0.03978,-0.0928 -0.106072,-0.10607 l -0.185627,-0.0265 c -0.437548,-0.0663 -0.570139,-0.18563 -0.570139,-0.57014 l 0,-3.20868 c 0.676211,-0.79555 1.180055,-1.02095 1.763452,-1.02095 0.702729,0 0.861838,0.43755 0.861838,1.36568 l 0,2.86395 c 0,0.38451 -0.14585,0.50385 -0.570139,0.57014 l -0.185626,0.0265 c -0.0663,0.0133 -0.106073,0.0398 -0.106073,0.10607 l 0,0.25192 0.02652,0.0265 c 0.530361,-0.0133 0.795542,-0.0265 1.312644,-0.0265 0.54362,0 0.888356,0.0133 1.418717,0.0265 l 0.02652,-0.0265 0,-0.25192 c 0,-0.0663 -0.05304,-0.0928 -0.119331,-0.10607 l -0.251922,-0.0265 c -0.411029,-0.0398 -0.556879,-0.18563 -0.556879,-0.57014 l 0,-2.77114 c 0,-1.18005 -0.265182,-2.09492 -1.458494,-2.09492 -0.676211,0 -1.312646,0.18562 -2.161224,1.18005 l -0.03978,0 0.03978,-1.18005"
       id="path16048" /><path
       d="m 42.47918,148.72255 c -0.05304,-0.11933 -0.159109,-0.17237 -0.27844,-0.18563 -0.41103,0.59666 -1.020947,0.9414 -1.591085,0.9414 -1.020945,0 -1.763452,-1.04747 -1.763452,-2.59878 0,-1.45849 0.676212,-2.32033 1.551308,-2.32033 0.782282,0 0.888355,0.57014 0.941391,1.00769 0.03978,0.33148 0.198886,0.46407 0.477326,0.46407 0.278439,0 0.623174,-0.18563 0.623174,-0.57014 0,-0.70273 -0.70273,-1.35242 -1.975596,-1.35242 -1.431975,0 -2.744621,1.18005 -2.744621,3.06283 0,1.71042 0.928134,2.89047 2.598771,2.89047 0.795542,0 1.498272,-0.25192 2.161224,-1.33916"
       id="path16050" /><path
       d="m 44.161911,142.37147 c 0,0.34474 0.2917,0.63644 0.636434,0.63644 0.344735,0 0.636434,-0.2917 0.636434,-0.63644 0,-0.34473 -0.291699,-0.63643 -0.636434,-0.63643 -0.344734,0 -0.636434,0.2917 -0.636434,0.63643 m 1.24635,1.73694 c 0,-0.0265 -0.02652,-0.0398 -0.05304,-0.0398 -0.371253,0.14585 -0.928134,0.26518 -1.869525,0.41103 l 0.02652,0.31822 0.570138,0.053 c 0.185626,0.0265 0.291699,0.15911 0.291699,0.82206 l 0,3.3015 c 0,0.38451 -0.119332,0.5171 -0.570139,0.57014 l -0.251921,0.0265 c -0.0663,0.0133 -0.106073,0.0398 -0.106073,0.10607 l 0,0.25192 0.02652,0.0265 c 0.530361,-0.0133 0.901615,-0.0265 1.37894,-0.0265 0.503843,0 0.888356,0.0133 1.418717,0.0265 l 0.02652,-0.0265 0,-0.25192 c 0,-0.0663 -0.05304,-0.0928 -0.119331,-0.10607 l -0.251922,-0.0265 c -0.411029,-0.0398 -0.556879,-0.18563 -0.556879,-0.57014 l 0,-3.3015 c 0,-0.66295 0.03978,-1.56456 0.03978,-1.56456"
       id="path16052" /><path
       d="m 52.123005,148.72255 c -0.05304,-0.11933 -0.159109,-0.17237 -0.27844,-0.18563 -0.411029,0.59666 -1.020946,0.9414 -1.591084,0.9414 -1.020945,0 -1.763452,-1.04747 -1.763452,-2.59878 0,-1.45849 0.676211,-2.32033 1.551307,-2.32033 0.782283,0 0.888356,0.57014 0.941392,1.00769 0.03978,0.33148 0.198886,0.46407 0.477325,0.46407 0.27844,0 0.623175,-0.18563 0.623175,-0.57014 0,-0.70273 -0.70273,-1.35242 -1.975597,-1.35242 -1.431974,0 -2.744621,1.18005 -2.744621,3.06283 0,1.71042 0.928135,2.89047 2.598772,2.89047 0.795541,0 1.498272,-0.25192 2.161223,-1.33916"
       id="path16054" /><path
       d="m 53.925068,148.97447 c 0,0.38451 -0.132591,0.53036 -0.570138,0.57014 l -0.318217,0.0265 c -0.06629,0 -0.09281,0.0398 -0.09281,0.10607 l 0,0.25192 0.01326,0.0265 c 0.662952,-0.0133 0.928134,-0.0265 1.445236,-0.0265 0.54362,0 0.808802,0.0133 1.471753,0.0265 l 0.02652,-0.0265 0,-0.25192 c 0,-0.0663 -0.05304,-0.10607 -0.106072,-0.10607 l -0.318217,-0.0265 c -0.437548,-0.0398 -0.55688,-0.18563 -0.55688,-0.57014 l 0,-6.77537 c 0,-0.86183 0.03978,-1.3922 0.03978,-1.3922 0,-0.0928 -0.05304,-0.13259 -0.172367,-0.13259 -0.331476,0.13259 -1.24635,0.30496 -1.78997,0.34474 l 0.02652,0.31822 c 0,0.0398 0.03978,0.0663 0.07955,0.0663 l 0.424289,0.0265 c 0.265181,0 0.397771,0.17237 0.397771,1.0342 l 0,6.51019"
       id="path16056" /><path
       d="m 56.889989,147.21102 c 0,1.35242 0.941393,2.85069 2.718103,2.85069 1.882781,0 2.74462,-1.64412 2.74462,-2.97002 0,-1.37894 -0.755767,-2.98328 -2.718102,-2.98328 -1.763451,0 -2.744621,1.28612 -2.744621,3.10261 m 2.598771,-2.66507 c 1.08724,0 1.736934,1.02095 1.736934,2.97003 0,1.75019 -0.795543,2.10819 -1.392199,2.10819 -1.312643,0 -1.816488,-1.69716 -1.816488,-2.71811 0,-1.15353 0.411031,-2.36011 1.471753,-2.36011"
       id="path16058" /><path
       d="m 65.193126,145.80556 c 0.291698,-0.70273 0.928133,-1.08724 1.37894,-1.08724 0.8088,0 1.498271,0.95465 1.498271,2.45292 0,1.08724 -0.357996,2.43967 -1.776711,2.43967 -0.212145,0 -0.636435,-0.0265 -1.1005,-0.57014 l 0,-3.23521 m -0.994428,-0.13259 0,6.39086 c 0,0.37125 -0.14585,0.5171 -0.570139,0.55688 l -0.251922,0.0265 c -0.0663,0.0132 -0.106072,0.0398 -0.106072,0.10607 l 0,0.25192 0.02652,0.0265 c 0.490584,-0.0133 0.901615,-0.0265 1.37894,-0.0265 0.503843,0 0.928133,0.0133 1.418717,0.0265 l 0.02652,-0.0265 0,-0.25192 c 0,-0.0663 -0.05304,-0.0928 -0.119331,-0.10607 l -0.251922,-0.0265 c -0.41103,-0.0398 -0.556879,-0.18563 -0.556879,-0.55688 l 0,-2.29382 c 0.344734,0.18563 0.702729,0.2917 1.180054,0.2917 0.702728,0 1.339163,-0.2254 1.856265,-0.7425 0.596656,-0.60992 0.928133,-1.43198 0.928133,-2.50596 0,-1.40546 -0.941393,-2.70484 -2.227518,-2.70484 -0.424289,0 -1.127019,0.13259 -1.736934,1.06072 l -0.03978,0 0.03978,-1.06072 c 0,-0.0265 -0.02652,-0.0398 -0.05304,-0.0398 -0.384511,0.14585 -0.888356,0.26518 -1.829747,0.41103 l 0.02652,0.31822 0.570139,0.053 c 0.185626,0.0265 0.291699,0.15911 0.291699,0.82206"
       id="path16060" /><path
       d="m 73.598603,141.03231 -1.007687,1.57782 c -0.106072,0.17237 -0.14585,0.22541 -0.14585,0.37126 0,0.0928 0.09281,0.17236 0.185627,0.17236 0.09281,0 0.198886,-0.053 0.397771,-0.25192 l 1.524789,-1.44523 -0.03978,-0.14585 c -0.304957,-0.2917 -0.649693,-0.30496 -0.729247,-0.30496 -0.06629,0 -0.145849,0.0133 -0.185626,0.0265 m -2.028633,5.09147 c 0.238662,-1.49827 1.219832,-1.56457 1.524789,-1.56457 0.477325,0 1.1005,0.26518 1.1005,1.37894 0,0.11933 -0.05304,0.18563 -0.185626,0.18563 l -2.439663,0 m 3.500386,2.54573 c -0.464066,0.50385 -0.928133,0.74251 -1.65738,0.74251 -0.742505,0 -1.882783,-0.79554 -1.882783,-2.77114 l 3.487127,0 c 0.145849,0 0.238662,-0.0796 0.238662,-0.2254 0,-1.11376 -0.411031,-2.30707 -2.161223,-2.30707 -1.259607,0 -2.625289,1.16679 -2.625289,3.18216 0,1.52479 0.808803,2.77114 2.625289,2.77114 0.95465,0 1.736935,-0.49058 2.240778,-1.18005 -0.03978,-0.13259 -0.119332,-0.19889 -0.265181,-0.21215"
       id="path16062" /><path
       d="m 80.618511,148.68277 c -0.596656,0.47733 -1.11376,0.75577 -1.458495,0.75577 -0.715987,0 -1.445235,-0.78229 -1.445235,-2.43966 0,-0.95465 0.172368,-1.48502 0.371253,-1.76346 0.41103,-0.62317 0.96791,-0.66295 1.233091,-0.66295 0.623174,0 0.981169,0.27844 1.299386,0.78228 l 0,3.32802 m 0.994427,-6.48367 c 0,-0.86183 0.03978,-1.3922 0.03978,-1.3922 0,-0.0928 -0.05304,-0.13259 -0.172368,-0.13259 -0.331476,0.13259 -1.24635,0.30496 -1.78997,0.34474 l 0.02652,0.31822 c 0,0.0398 0.03978,0.0663 0.07955,0.0663 l 0.424289,0.0265 c 0.265181,0 0.397772,0.17237 0.397772,1.0342 l 0,1.93582 c -0.304958,-0.17236 -0.888356,-0.29169 -1.153537,-0.29169 -0.875095,0 -1.458494,0.29169 -1.988855,0.79554 -0.570138,0.57014 -0.888356,1.35242 -0.888356,2.33359 0,1.63086 0.795544,2.82417 2.227518,2.82417 0.530361,0 1.193314,-0.42429 1.80323,-0.91487 l 0.02652,0.0133 -0.02652,0.92813 0.304957,0 c 0.291699,-0.23866 0.875098,-0.41103 1.697157,-0.55688 l -0.03978,-0.30496 -0.636434,-0.0663 c -0.278439,-0.0265 -0.331476,-0.10607 -0.331476,-0.76903 l 0,-6.19197"
       id="path16064" /><path
       d="m 84.195214,142.37147 c 0,0.34474 0.291699,0.63644 0.636433,0.63644 0.344735,0 0.636434,-0.2917 0.636434,-0.63644 0,-0.34473 -0.291699,-0.63643 -0.636434,-0.63643 -0.344734,0 -0.636433,0.2917 -0.636433,0.63643 m 1.246349,1.73694 c 0,-0.0265 -0.02652,-0.0398 -0.05304,-0.0398 -0.371253,0.14585 -0.928134,0.26518 -1.869524,0.41103 l 0.02652,0.31822 0.570138,0.053 c 0.185627,0.0265 0.291699,0.15911 0.291699,0.82206 l 0,3.3015 c 0,0.38451 -0.119332,0.5171 -0.570138,0.57014 l -0.251922,0.0265 c -0.06629,0.0133 -0.106072,0.0398 -0.106072,0.10607 l 0,0.25192 0.02652,0.0265 c 0.530361,-0.0133 0.901615,-0.0265 1.37894,-0.0265 0.503843,0 0.888356,0.0133 1.418717,0.0265 l 0.02652,-0.0265 0,-0.25192 c 0,-0.0663 -0.05304,-0.0928 -0.119332,-0.10607 l -0.251921,-0.0265 c -0.41103,-0.0398 -0.55688,-0.18563 -0.55688,-0.57014 l 0,-3.3015 c 0,-0.66295 0.03978,-1.56456 0.03978,-1.56456"
       id="path16066" /><path
       d="m 90.764108,146.83977 0,1.76345 c 0,0.17237 -0.07955,0.26518 -0.185626,0.34473 -0.344735,0.27844 -0.795543,0.57014 -1.166795,0.57014 -0.662952,0 -0.981169,-0.53036 -0.981169,-0.94139 0,-0.59666 0.304959,-1.19331 1.286126,-1.45849 l 1.047464,-0.27844 m 0,2.45292 c 0.07956,0.27844 0.2917,0.76902 0.994428,0.76902 0.649692,0 1.1005,-0.53036 1.1005,-0.59665 0,-0.0928 -0.09281,-0.19889 -0.145849,-0.19889 -0.07955,0 -0.119332,0.21215 -0.437548,0.21215 -0.517102,0 -0.530362,-0.54363 -0.530362,-1.15354 l 0,-1.9756 c 0,-1.88278 -0.98117,-2.24077 -1.949078,-2.24077 -1.08724,0 -2.187742,0.75576 -2.187742,1.47175 0,0.31822 0.159109,0.46406 0.464067,0.46406 0.384511,0 0.583397,-0.26518 0.583397,-0.43754 0,-0.0928 -0.01326,-0.18563 -0.03978,-0.23867 -0.01326,-0.0398 -0.02652,-0.11933 -0.02652,-0.26518 0,-0.41103 0.596657,-0.59665 1.1005,-0.59665 0.450807,0 1.073982,0.26518 1.073982,1.76345 0,0.0928 -0.03978,0.14585 -0.07955,0.15911 l -1.140277,0.27844 c -1.272866,0.31821 -2.161223,1.02094 -2.161223,1.92256 0,1.04746 0.715989,1.43197 1.64412,1.43197 0.609916,0 0.861838,-0.10607 1.445236,-0.55688 l 0.26518,-0.21214 0.02652,0"
       id="path16068" /><path
       d="m 98.068131,148.97447 c 0,0.38451 -0.132591,0.53036 -0.570139,0.57014 l -0.318217,0.0265 c -0.0663,0 -0.09281,0.0398 -0.09281,0.10607 l 0,0.25192 0.01326,0.0265 c 0.662951,-0.0133 0.928133,-0.0265 1.445235,-0.0265 0.54362,0 0.808802,0.0133 1.47175,0.0265 l 0.0265,-0.0265 0,-0.25192 c 0,-0.0663 -0.05304,-0.10607 -0.106071,-0.10607 l -0.318217,-0.0265 c -0.437548,-0.0398 -0.556879,-0.18563 -0.556879,-0.57014 l 0,-6.77537 c 0,-0.86183 0.03978,-1.3922 0.03978,-1.3922 0,-0.0928 -0.05304,-0.13259 -0.172368,-0.13259 -0.331475,0.13259 -1.24635,0.30496 -1.78997,0.34474 l 0.02652,0.31822 c 0,0.0398 0.03978,0.0663 0.07955,0.0663 l 0.42429,0.0265 c 0.26518,0 0.397771,0.17237 0.397771,1.0342 l 0,6.51019"
       id="path16070" /><path
       d="m 101.696,142.37147 c 0,0.34474 0.2917,0.63644 0.63643,0.63644 0.34474,0 0.63644,-0.2917 0.63644,-0.63644 0,-0.34473 -0.2917,-0.63643 -0.63644,-0.63643 -0.34473,0 -0.63643,0.2917 -0.63643,0.63643 m 1.24635,1.73694 c 0,-0.0265 -0.0265,-0.0398 -0.053,-0.0398 -0.37125,0.14585 -0.92813,0.26518 -1.86952,0.41103 l 0.0265,0.31822 0.57014,0.053 c 0.18562,0.0265 0.29169,0.15911 0.29169,0.82206 l 0,3.3015 c 0,0.38451 -0.11933,0.5171 -0.57013,0.57014 l -0.25193,0.0265 c -0.0663,0.0133 -0.10607,0.0398 -0.10607,0.10607 l 0,0.25192 0.0265,0.0265 c 0.53036,-0.0133 0.90161,-0.0265 1.37894,-0.0265 0.50384,0 0.88836,0.0133 1.41872,0.0265 l 0.0265,-0.0265 0,-0.25192 c 0,-0.0663 -0.053,-0.0928 -0.11933,-0.10607 l -0.25192,-0.0265 c -0.41103,-0.0398 -0.55688,-0.18563 -0.55688,-0.57014 l 0,-3.3015 c 0,-0.66295 0.0398,-1.56456 0.0398,-1.56456"
       id="path16072" /><path
       d="m 108.67592,144.59899 c 0.67621,0.0398 0.76903,0.11933 0.55688,0.63643 l -1.18005,2.90373 -0.2254,0.57014 -0.22541,-0.60991 -1.14027,-2.89047 c -0.11934,-0.30496 -0.17237,-0.53037 0.25192,-0.5834 l 0.2254,-0.0265 c 0.0398,0 0.11933,-0.0265 0.11933,-0.10607 l 0,-0.25192 -0.053,-0.0265 c -0.49059,0.0133 -0.80881,0.0265 -1.32591,0.0265 -0.46406,0 -0.66295,-0.0133 -1.15353,-0.0265 l -0.0398,0.0265 0,0.26518 c 0,0.0663 0.0663,0.0796 0.13259,0.0928 0.37125,0.053 0.66295,0.15911 0.84858,0.63643 l 1.80323,4.57437 c 0.0795,0.19889 0.1591,0.27844 0.33147,0.27844 0.13259,0 0.22541,-0.0796 0.31822,-0.30496 l 1.82975,-4.49481 c 0.21214,-0.50384 0.5171,-0.64969 0.90161,-0.68947 0.0796,-0.0133 0.14585,-0.053 0.14585,-0.11933 l 0,-0.23866 -0.0265,-0.0265 c -0.35799,0.0133 -0.55688,0.0265 -0.90161,0.0265 -0.49059,0 -0.78229,-0.0133 -1.27287,-0.0265 l -0.0265,0.0265 0,0.26518 c 0,0.0398 0.0398,0.0928 0.10607,0.0928"
       id="path16074" /><path
       d="m 112.49564,148.97447 c 0,0.38451 -0.13259,0.53036 -0.57014,0.57014 l -0.25192,0.0265 c -0.0663,0.0133 -0.0928,0.0398 -0.0928,0.10607 l 0,0.25192 0.0133,0.0265 c 0.49058,-0.0133 0.90161,-0.0265 1.37894,-0.0265 0.50384,0 1.07398,0.0133 1.56456,0.0265 l 0.0265,-0.0265 0,-0.25192 c 0,-0.0663 -0.053,-0.10607 -0.11933,-0.10607 l -0.38451,-0.0265 c -0.42429,-0.0265 -0.57014,-0.18563 -0.57014,-0.57014 l 0,-2.90373 c 0,-0.17236 0.0663,-0.34473 0.15911,-0.46406 0.31822,-0.45081 0.60991,-0.68947 0.75576,-0.68947 0.0928,0 0.18563,0.0398 0.26518,0.11933 0.13259,0.13259 0.27844,0.23866 0.54363,0.23866 0.34473,0 0.57013,-0.21214 0.57013,-0.55688 0,-0.34473 -0.19888,-0.60991 -0.7425,-0.60991 -0.62318,0 -1.20658,0.67621 -1.55131,1.19331 l -0.0398,0 0.0398,-1.19331 c 0,-0.0265 -0.0265,-0.0398 -0.053,-0.0398 -0.37125,0.14585 -0.90161,0.26518 -1.82974,0.41103 l 0.0265,0.31822 0.57014,0.053 c 0.18563,0.0265 0.2917,0.15911 0.2917,0.82206 l 0,3.3015"
       id="path16076" /><path
       d="m 117.69927,146.12378 c 0.23866,-1.49827 1.21983,-1.56457 1.52479,-1.56457 0.47732,0 1.1005,0.26518 1.1005,1.37894 0,0.11933 -0.053,0.18563 -0.18563,0.18563 l -2.43966,0 m 3.50039,2.54573 c -0.46407,0.50385 -0.92814,0.74251 -1.65738,0.74251 -0.74251,0 -1.88279,-0.79554 -1.88279,-2.77114 l 3.48713,0 c 0.14585,0 0.23866,-0.0796 0.23866,-0.2254 0,-1.11376 -0.41103,-2.30707 -2.16122,-2.30707 -1.25961,0 -2.62529,1.16679 -2.62529,3.18216 0,1.52479 0.8088,2.77114 2.62529,2.77114 0.95465,0 1.73693,-0.49058 2.24078,-1.18005 -0.0398,-0.13259 -0.11934,-0.19889 -0.26518,-0.21215"
       id="path16078" /></g></svg>